<svg preserveAspectRatio="none" fill="none" viewBox="0 0 32 28" height="28" width="32" xmlns="http://www.w3.org/2000/svg">
<path fill="#7D848F" d="M7.06333 27.02L6.91965 22.7097C6.91546 22.584 6.84182 22.4721 6.72985 22.4148C4.55127 21.3004 0.530777 17.839 0.530777 12.0922C0.530777 4.70244 6.91283 0.503726 14.3026 0.503726C21.5272 0.503726 27.9492 5.31958 28.2326 12.2833C28.242 12.5162 28.01 12.6821 27.7864 12.6162C27.0042 12.3856 25.6845 12.0922 24.3795 12.0922C22.3641 12.0922 15.8141 12.764 15.8141 19.4819C15.8141 21.4482 16.3579 22.8218 16.877 23.6255C17.0493 23.8922 16.8535 24.3524 16.536 24.3524H13.5421C13.49 24.3524 13.4385 24.3646 13.3919 24.3879L7.54926 27.3092C7.33027 27.4187 7.07148 27.2647 7.06333 27.02ZM31.4333 19.8178C31.4333 22.0861 30.0108 24.0626 27.9064 25.0971V26.7882C27.9064 27.048 27.6241 27.2095 27.4002 27.0778L25.2794 25.8302C25.0389 25.8525 24.7947 25.864 24.5474 25.864C20.7445 25.864 17.6615 23.157 17.6615 19.8178C17.6615 16.4786 20.7445 13.7717 24.5474 13.7717C28.3504 13.7717 31.4333 16.4786 31.4333 19.8178Z" clip-rule="evenodd" fill-rule="evenodd"></path>
</svg>