<svg preserveAspectRatio="none" fill="none" viewBox="0 0 20 27" height="27" width="20" xmlns="http://www.w3.org/2000/svg">
<path fill="url(#paint0_linear_53_37)" d="M10.1665 26.7037C10.17 26.7037 10.1735 26.7037 10.1769 26.7037C10.179 26.7037 10.181 26.7037 10.1831 26.7037C14.5449 26.7016 19.8971 26.1919 19.8971 22.3371C19.8971 19.4666 16.7092 16.7604 14.7751 15.5375C14.5751 15.411 14.5545 15.1222 14.7262 14.9593C16.3492 13.4189 17.0573 10.7486 17.0573 7.4412C16.9117 3.67728 13.887 0.671675 10.1769 0.671675C6.48413 0.671675 3.47026 3.64947 3.29875 7.38887C3.29875 10.7486 4.22496 13.6478 5.60687 14.9593C5.77853 15.1222 5.75799 15.411 5.55797 15.5375C3.62385 16.7604 0.435913 19.4666 0.435913 22.3371C0.435913 26.1919 5.7882 26.7016 10.15 26.7037C10.152 26.7037 10.1541 26.7037 10.1561 26.7037C10.1596 26.7037 10.1631 26.7037 10.1665 26.7037Z" clip-rule="evenodd" fill-rule="evenodd"></path>
<defs>
<linearGradient gradientUnits="userSpaceOnUse" y2="19.1641" x2="-1.04393" y1="6.08093" x1="17.7905" id="paint0_linear_53_37">
<stop stop-color="#EE805F"></stop>
<stop stop-color="#EA4080" offset="1"></stop>
</linearGradient>
</defs>
</svg>