<svg preserveAspectRatio="none" version="1.1" viewBox="0 0 20 27" height="27px" width="20px" xmlns:xlink="http://www.w3.org/1999/xlink" xmlns="http://www.w3.org/2000/svg">
    <title>Path</title>
    <g fill-rule="evenodd" fill="none" stroke-width="1" stroke="none" id="Tinder-App">
        <g fill="#7D848F" id="Perfil">
            <path id="Path" d="M9.731,26.032 C9.734,26.032 9.738,26.032 9.741,26.032 C9.743,26.032 9.745,26.032 9.747,26.032 C14.109,26.03 19.461,25.52 19.461,21.665 C19.461,18.795 16.273,16.089 14.339,14.866 C14.139,14.739 14.119,14.451 14.29,14.288 C15.913,12.747 16.621,10.077 16.621,6.77 C16.476,3.006 13.451,0 9.741,0 C6.048,0 3.034,2.978 2.863,6.717 C2.863,10.077 3.789,12.976 5.171,14.288 C5.343,14.451 5.322,14.739 5.122,14.866 C3.188,16.089 0,18.795 0,21.665 C0,25.52 5.352,26.03 9.714,26.032 C9.716,26.032 9.718,26.032 9.72,26.032 C9.724,26.032 9.727,26.032 9.731,26.032 Z"></path>
        </g>
    </g>
</svg>