<svg preserveAspectRatio="none" version="1.1" viewBox="0 0 29 24" height="24px" width="29px" xmlns:xlink="http://www.w3.org/1999/xlink" xmlns="http://www.w3.org/2000/svg">
    <title>Shape</title>
    <g fill-rule="evenodd" fill="none" stroke-width="1" stroke="none" id="Tinder-App">
        <g fill="#7D8490" id="Pesquisar">
            <path id="Shape" d="M13.772,0 C13.215,0 12.764,0.451 12.764,1.007 L12.764,8.12 C14.234,7.23 15.958,6.717 17.802,6.717 C19.647,6.717 21.371,7.23 22.841,8.12 L22.841,1.007 C22.841,0.451 22.39,0 21.833,0 L13.772,0 Z M1.008,12.763 L8.787,12.763 C8.319,13.903 8.061,15.15 8.061,16.458 C8.061,18.634 8.775,20.643 9.98,22.264 C9.818,22.605 9.471,22.84 9.069,22.84 L1.008,22.84 C0.451,22.84 0,22.389 0,21.832 L0,13.771 C0,13.214 0.451,12.763 1.008,12.763 Z M0,1.007 C0,0.451 0.451,0 1.008,0 L9.069,0 C9.626,0 10.077,0.451 10.077,1.007 L10.077,9.069 C10.077,9.625 9.626,10.077 9.069,10.077 L1.008,10.077 C0.451,10.077 0,9.625 0,9.069 L0,1.007 Z M24.857,16.123 C24.857,16.914 24.727,17.674 24.486,18.384 L27.469,20.887 C28.179,21.483 28.272,22.542 27.676,23.253 C27.08,23.964 26.02,24.056 25.31,23.46 L22.661,21.237 C21.396,22.439 19.686,23.176 17.803,23.176 C13.907,23.176 10.749,20.018 10.749,16.123 C10.749,12.227 13.907,9.069 17.803,9.069 C21.699,9.069 24.857,12.227 24.857,16.123 Z M13.923,16.123 C13.923,18.265 15.66,20.002 17.803,20.002 C19.946,20.002 21.683,18.265 21.683,16.123 C21.683,13.98 19.946,12.243 17.803,12.243 C15.66,12.243 13.923,13.98 13.923,16.123 Z"></path>
        </g>
    </g>
</svg>